#!OML:ASF F:\VICON\USERDATA\INSTALL\rory3\rory3.ASF
:FULLY-SPECIFIED
:DEGREES
198
root 1.66036 17.5883 -4.87198 113.046 66.6715 -415.998
lowerback 6.2127 3.12208 -0.746559
upperback -7.89477 4.33679 0.530095
thorax -12.1068 2.24608 0.255437
lowerneck -38.8929 -7.84533 -22.8281
upperneck 1.34151 -1.06558 17.3297
head 6.36748 1.30904 9.77378
rclavicle -2.17868e-013 -3.81667e-014
rhumerus 74.8269 -35.6963 8.40343
rradius 28.5552
rwrist 23.4872
rhand -36.8258 -81.7289
rfingers 7.12502
rthumb -9.9066 111.476
lclavicle -2.17868e-013 -3.81667e-014
lhumerus 55.5033 29.6351 28.7262
lradius 40.5794
lwrist 16.1111
lhand -49.6528 119.34
lfingers 7.12502
lthumb -22.2558 -269.399
rfemur -20.4859 -6.48483 7.82042
rtibia 33.1763
rfoot -21.7864 -38.3249
rtoes 14.0602
lfemur -48.2119 39.7711 50.9414
ltibia -4.45278e-014
lfoot -8.91463 43.7889
ltoes 8.74187
199
root 1.60636 17.5716 -5.08474 113.489 65.4585 -415.3
lowerback 5.86699 2.95933 -0.364499
upperback -7.91876 4.10479 0.138888
thorax -11.8539 2.07714 -0.317671
lowerneck -37.8012 -7.67592 -22.5986
upperneck 0.680174 -1.29473 17.9722
head 6.13175 1.22761 9.89834
rclavicle 1.145e-013 0
rhumerus 75.3908 -36.3131 7.76733
rradius 27.3053
rwrist 25.1999
rhand -35.2163 -77.7651
rfingers 7.12502
rthumb -8.35349 107.58
lclavicle 1.145e-013 0
lhumerus 56.0063 29.4605 29.0783
lradius 39.9567
lwrist 16.034
lhand -50.1956 119.954
lfingers 7.12502
lthumb -22.7769 -268.721
rfemur -20.0295 -5.91322 8.92353
rtibia 34.0963
rfoot -15.6945 -39.4755
rtoes 7.16986
lfemur -49.1229 40.971 51.3967
ltibia 9.85972e-014
lfoot -11.8541 43.1911
ltoes 5.9417
200
root 1.55215 17.5466 -5.30018 113.381 63.7901 -415.021
lowerback 5.68256 2.80283 -0.379238
upperback -7.87561 3.80634 -0.460084
thorax -11.6445 1.89655 -0.891595
lowerneck -38.0054 -7.17623 -21.5485
upperneck 1.2588 -1.08199 17.4609
head 6.28727 1.27321 9.57289
rclavicle -3.81667e-014 6.52014e-014
rhumerus 73.0487 -36.9357 9.59595
rradius 28.681
rwrist 25.076
rhand -34.7837 -75.3484
rfingers 7.12502
rthumb -7.93604 105.179
lclavicle -3.81667e-014 6.52014e-014
lhumerus 56.4368 29.2702 29.2905
lradius 39.6162
lwrist 15.9882
lhand -50.0741 118.217
lfingers 7.12502
lthumb -22.6602 -89.5269
rfemur -19.7084 -5.87353 9.54476
rtibia 35.5657
rfoot -12.6842 -38.9
rtoes 2.15139
lfemur -49.9392 41.8761 51.2252
ltibia -5.08889e-014
lfoot -11.2083 44.568
ltoes 16.2564
201
root 1.50813 17.5053 -5.4854 112.575 61.3235 -415.29
lowerback 5.66152 2.69198 -1.41334
upperback -7.75457 3.4372 -1.18649
thorax -11.5143 1.75894 -1.03286
lowerneck -37.2064 -6.86649 -20.7966
upperneck 0.716734 -1.22268 17.725
head 6.06303 1.20986 9.49365
rclavicle -1.1291e-013 6.36111e-015
rhumerus 71.7685 -37.5149 11.0286
rradius 27.9363
rwrist 24.6579
rhand -34.4567 -73.154
rfingers 7.12502
rthumb -7.62043 102.997
lclavicle -1.1291e-013 6.36111e-015
lhumerus 56.7174 29.0145 29.5958
lradius 39.3509
lwrist 15.8646
lhand -49.7545 115.387
lfingers 7.12502
lthumb -22.3534 -86.6597
rfemur -19.4162 -6.23279 9.39972
rtibia 37.4413
rfoot -12.4473 -37.6803
rtoes 2.85632
lfemur -50.955 42.3615 49.9381
ltibia -4.45278e-014
lfoot -11.3856 44.2802
ltoes 12.7046
202
root 1.45927 17.4582 -5.68369 112.361 59.136 -415.082
lowerback 5.44454 2.54709 -2.27138
upperback -7.68115 3.08219 -1.67625
thorax -11.3228 1.62831 -1.01113
lowerneck -36.375 -6.48575 -20.0895
upperneck 0.152177 -1.19623 17.7717
head 5.78371 1.20247 9.35869
rclavicle 1.11319e-013 -4.77083e-015
rhumerus 70.5138 -37.9999 12.8768
rradius 26.7878
rwrist 23.3738
rhand -33.2964 -71.4418
rfingers 7.12502
rthumb -6.50039 101.322
lclavicle 1.11319e-013 -4.77083e-015
lhumerus 56.8351 28.8177 30.1201
lradius 39.0726
lwrist 15.723
lhand -49.6941 114.492
lfingers 7.12502
lthumb -22.2955 -85.7581
rfemur -19.4038 -6.03122 9.84832
rtibia 39.5158
rfoot -12.0634 -37.5226
rtoes 2.00519
lfemur -52.1796 42.9677 48.8138
ltibia 8.26944e-014
lfoot -11.4034 44.3552
ltoes 12.9178
203
root 1.40873 17.4031 -5.90181 112.443 57.4991 -414.607
lowerback 5.22849 2.36757 -2.55939
upperback -7.64971 2.76631 -2.03152
thorax -11.1519 1.47701 -1.17086
lowerneck -36.645 -5.84917 -18.6781
upperneck 0.904229 -0.889945 16.6538
head 5.9604 1.24232 8.75889
rclavicle 7.63333e-014 0
rhumerus 68.8146 -38.4814 14.3512
rradius 26.5685
rwrist 21.5556
rhand -32.7096 -70.9149
rfingers 7.12502
rthumb -5.93384 100.812
lclavicle 7.63333e-014 0
lhumerus 57.0175 28.6758 30.4149
lradius 38.6316
lwrist 15.683
lhand -49.8209 114.439
lfingers 7.12502
lthumb -22.4171 -85.72
rfemur -19.6268 -6.61777 11.1168
rtibia 41.5928
rfoot -10.9876 -37.1799
rtoes 0.217748
lfemur -53.3224 43.6582 48.2497
ltibia -1.24042e-013
lfoot -10.6022 44.6978
ltoes 17.0391
204
root 1.35935 17.3366 -6.11497 112.137 55.6411 -414.516
lowerback 5.13348 2.24939 -3.09092
upperback -7.62387 2.48907 -2.53032
thorax -11.0704 1.35618 -1.36351
lowerneck -35.4018 -5.7315 -18.3043
upperneck -0.262137 -1.14666 17.4522
head 5.51963 1.1566 8.9034
rclavicle -5.08889e-014 9.54166e-015
rhumerus 66.9117 -38.9993 14.9458
rradius 27.3725
rwrist 19.9108
rhand -32.3244 -71.8173
rfingers 7.12502
rthumb -5.56191 101.724
lclavicle -5.08889e-014 9.54166e-015
lhumerus 57.2412 28.4332 30.4101
lradius 38.1795
lwrist 16.1439
lhand -49.825 113.758
lfingers 7.12502
lthumb -22.4211 -85.0396
rfemur -19.9171 -7.65465 12.1662
rtibia 43.5853
rfoot -10.5282 -36.1684
rtoes -0.166009
lfemur -54.224 44.2176 47.399
ltibia -4.77083e-014
lfoot -12.1667 44.1049
ltoes 15.7562
205
root 1.30971 17.2635 -6.32504 111.72 53.6191 -414.474
lowerback 5.05918 2.18746 -3.8218
upperback -7.53978 2.27234 -3.0208
thorax -10.9483 1.28093 -1.44478
lowerneck -35.433 -5.2979 -17.4623
upperneck 0.522121 -1.06267 17.7657
head 5.78306 1.21262 8.91045
rclavicle 2.59215e-013 -6.36111e-014
rhumerus 65.5898 -39.6883 14.9434
rradius 27.5572
rwrist 19.2306
rhand -31.9062 -73.1401
rfingers 7.12502
rthumb -5.15812 103.057
lclavicle 2.59215e-013 -6.36111e-014
lhumerus 57.3709 28.1764 30.5794
lradius 37.8834
lwrist 16.7082
lhand -49.5757 115.203
lfingers 7.12502
lthumb -22.1818 -86.4556
rfemur -20.1288 -7.36149 13.1221
rtibia 45.5005
rfoot -10.6066 -35.9112
rtoes -0.203017
lfemur -55.1005 44.6071 46.2851
ltibia 6.67916e-014
lfoot -12.6209 43.648
ltoes 16.6795
206
root 1.26262 17.1872 -6.53537 111.382 51.7042 -414.297
lowerback 4.91877 2.12923 -4.51844
upperback -7.36043 2.08782 -3.4227
thorax -10.6804 1.2212 -1.44692
lowerneck -35.1999 -5.29387 -17.3334
upperneck 0.432516 -1.14283 17.5626
head 5.73041 1.13918 8.78996
rclavicle -3.02153e-014 -4.45278e-014
rhumerus 64.8587 -40.6851 14.1928
rradius 27.0921
rwrist 19.2488
rhand -32.3784 -73.7975
rfingers 7.12502
rthumb -5.61411 103.703
lclavicle -3.02153e-014 -4.45278e-014
lhumerus 57.4793 27.9995 30.7502
lradius 37.5706
lwrist 17.2152
lhand -48.5123 113.939
lfingers 7.12502
lthumb -21.1606 -85.0741
rfemur -20.3369 -8.65432 14.0697
rtibia 47.1442
rfoot -10.8375 -33.9848
rtoes -2.0735
lfemur -56.0027 44.9126 45.2198
ltibia 9.85972e-014
lfoot -10.9059 44.3939
ltoes 21.01
207
root 1.21728 17.1043 -6.7473 111.132 49.9227 -413.995
lowerback 4.80479 2.02335 -4.94823
upperback -7.19791 1.86638 -3.84552
thorax -10.434 1.12042 -1.61696
lowerneck -35.5291 -4.65964 -16.0214
upperneck 1.28827 -0.909251 17.5976
head 6.01603 1.27215 8.64461
rclavicle -1.31993e-013 -7.63333e-014
rhumerus 63.9904 -41.6372 13.2453
rradius 26.9114
rwrist 18.7292
rhand -33.7975 -74.2061
rfingers 7.12502
rthumb -6.98412 104.071
lclavicle -1.31993e-013 -7.63333e-014
lhumerus 57.3261 27.7525 30.4576
lradius 37.375
lwrist 17.812
lhand -47.6934 109.439
lfingers 7.12502
lthumb -20.3737 -80.4882
rfemur -20.6191 -8.57866 15.4615
rtibia 48.5526
rfoot -12.14 -33.2921
rtoes 0.826518
lfemur -56.9073 45.1715 44.2505
ltibia 1.27222e-014
lfoot -11.2818 44.0951
ltoes 22.1996
